<mxfile host="app.diagrams.net" modified="2024-02-14T10:39:49.843Z" agent="Mozilla/5.0 (Macintosh; Intel Mac OS X 10_15_7) AppleWebKit/605.1.15 (KHTML, like Gecko) Version/16.5 Safari/605.1.15" version="23.1.4" etag="a5A-xbT_6WrGbdFzNsJM" type="github">
  <diagram name="Page-1" id="5KJcA4VHxWfqruUkJqRC">
    <mxGraphModel>
      <root>
        <mxCell id="0" />
        <mxCell id="1" parent="0" />
      </root>
    </mxGraphModel>
  </diagram>
</mxfile>
